<svg width="42" height="57" viewBox="0 0 42 57" fill="none" xmlns="http://www.w3.org/2000/svg">
<path d="M20.899 33.8672H7.54001V56.875H0V0H18.829C25.235 0 30.157 1.4583 33.594 4.375C37.058 7.2917 38.79 11.5365 38.79 17.1094C38.79 20.651 37.826 23.737 35.899 26.3672C33.998 28.9974 31.342 30.9635 27.93 32.2656L41.29 56.4062V56.875H33.243L20.899 33.8672ZM7.54001 27.7344H19.063C22.787 27.7344 25.743 26.7708 27.93 24.8438C30.144 22.9167 31.25 20.3385 31.25 17.1094C31.25 13.5938 30.196 10.8984 28.086 9.0234C26.003 7.1484 22.982 6.1979 19.024 6.1719H7.54001V27.7344Z" fill="#525CDD"/>
</svg>
