<svg width="42" height="58" viewBox="0 0 42 58" fill="none" xmlns="http://www.w3.org/2000/svg">
<path d="M41.1718 0V38.6719C41.1458 44.0365 39.4531 48.4245 36.0937 51.8359C32.7604 55.2474 28.2291 57.1615 22.5 57.5781L20.5078 57.6562C14.2838 57.6562 9.3229 55.9766 5.625 52.6172C1.927 49.2578 0.052 44.6354 0 38.75V0H7.4218V38.5156C7.4218 42.6302 8.5546 45.8333 10.8203 48.125C13.0859 50.3906 16.3151 51.5234 20.5078 51.5234C24.7526 51.5234 27.9947 50.3906 30.2343 48.125C32.5 45.8594 33.6328 42.6693 33.6328 38.5547V0H41.1718Z" fill="#FF8856"/>
</svg>
