<svg width="44" height="59" viewBox="0 0 44 59" fill="none" xmlns="http://www.w3.org/2000/svg">
<path d="M43.7896 39.6093C43.0856 45.625 40.8596 50.2734 37.1096 53.5546C33.3856 56.8098 28.4246 58.4374 22.2266 58.4374C15.5078 58.4374 10.1172 56.0286 6.0547 51.2109C2.0183 46.3932 0 39.9479 0 31.875V26.4062C0 21.1197 0.9375 16.4713 2.8125 12.4609C4.7136 8.4505 7.3959 5.3776 10.8594 3.2421C14.323 1.0807 18.3334 0 22.8906 0C28.9326 0 33.7756 1.6927 37.4216 5.0781C41.0676 8.4374 43.1906 13.0989 43.7896 19.0624H36.2496C35.5986 14.5312 34.1796 11.25 31.9926 9.2187C29.8306 7.1874 26.7966 6.1718 22.8906 6.1718C18.099 6.1718 14.336 7.9427 11.6016 11.4843C8.8933 15.026 7.5391 20.0651 7.5391 26.6015V32.1093C7.5391 38.2812 8.8282 43.1901 11.4063 46.8359C13.9844 50.4817 17.5912 52.3046 22.2266 52.3046C26.3936 52.3046 29.5836 51.3671 31.7966 49.4921C34.0366 47.5911 35.5206 44.2968 36.2496 39.6093H43.7896Z" fill="#0AC5A8"/>
</svg>
